<svg xmlns="http://www.w3.org/2000/svg" version="1.1" xmlns:xlink="http://www.w3.org/1999/xlink" xmlns:svgjs="http://svgjs.dev/svgjs" width="1440" height="560" preserveAspectRatio="none" viewBox="0 0 1440 560"><g mask="url(&quot;#SvgjsMask1003&quot;)" fill="none"><rect width="1440" height="560" x="0" y="0" fill="#0e2a47"></rect><path d="M628.423,127.865C656.509,129.144,685.771,122.154,701.599,98.917C719.43,72.74,723.982,38.07,708.352,10.522C692.548,-17.332,660.448,-30.221,628.423,-30.056C596.712,-29.893,564.283,-16.927,549.903,11.336C536.461,37.755,549.381,68.159,565.945,92.741C580.254,113.977,602.843,126.7,628.423,127.865" fill="rgba(28, 83, 142, 0.4)" class="triangle-float1"></path><path d="M626.867,419.985C683.738,416.84,728.395,374.832,754.209,324.06C777.53,278.191,772.742,225.688,748.816,180.132C722.771,130.541,682.738,85.589,626.867,81.592C564.472,77.128,502.527,106.529,470.421,160.215C437.519,215.232,439.478,284.719,472.55,339.634C504.618,392.881,564.804,423.417,626.867,419.985" fill="rgba(28, 83, 142, 0.4)" class="triangle-float1"></path><path d="M601.807,409.799C646.512,409.779,681.87,374.423,701.6,334.307C719.057,298.813,714.112,257.502,693.234,223.906C673.567,192.259,639.062,174.356,601.807,173.725C563.321,173.073,525.188,188.033,504.856,220.717C483.395,255.216,483.318,298.245,501.856,334.398C522.265,374.201,557.077,409.819,601.807,409.799" fill="rgba(28, 83, 142, 0.4)" class="triangle-float3"></path><path d="M1143.054,301.567C1201.715,297.441,1239.538,244.138,1265.191,191.222C1287.137,145.953,1287.391,95.366,1264.812,50.409C1239.305,-0.378,1199.827,-49.368,1143.054,-51.964C1082.789,-54.719,1031.156,-13.554,1000.354,38.318C968.801,91.456,957.583,156.453,987.034,210.784C1017.767,267.48,1078.723,306.091,1143.054,301.567" fill="rgba(28, 83, 142, 0.4)" class="triangle-float3"></path><path d="M971.773,399.853C1017.668,398.114,1059.287,373.799,1082.167,333.976C1104.961,294.302,1105.097,246.085,1083.2,205.908C1060.285,163.863,1019.653,132,971.773,131.421C922.991,130.831,880.532,161.233,855.578,203.154C829.975,246.167,820.416,299.829,845.875,342.927C870.982,385.428,922.445,401.722,971.773,399.853" fill="rgba(28, 83, 142, 0.4)" class="triangle-float2"></path><path d="M591.308,644.28C635.86,647.555,683.78,636.065,707.568,598.253C732.631,558.415,727.649,506.744,703.097,466.589C679.585,428.133,636.339,406.127,591.308,408.105C549.404,409.946,514.509,438.415,495.325,475.715C477.752,509.883,482.295,549.703,501.307,583.092C520.546,616.88,552.532,641.43,591.308,644.28" fill="rgba(28, 83, 142, 0.4)" class="triangle-float3"></path></g><defs><mask id="SvgjsMask1003"><rect width="1440" height="560" fill="#ffffff"></rect></mask><style>
                @keyframes float1 {
                    0%{transform: translate(0, 0)}
                    50%{transform: translate(-10px, 0)}
                    100%{transform: translate(0, 0)}
                }

                .triangle-float1 {
                    animation: float1 5s infinite;
                }

                @keyframes float2 {
                    0%{transform: translate(0, 0)}
                    50%{transform: translate(-5px, -5px)}
                    100%{transform: translate(0, 0)}
                }

                .triangle-float2 {
                    animation: float2 4s infinite;
                }

                @keyframes float3 {
                    0%{transform: translate(0, 0)}
                    50%{transform: translate(0, -10px)}
                    100%{transform: translate(0, 0)}
                }

                .triangle-float3 {
                    animation: float3 6s infinite;
                }
            </style></defs></svg>